<svg width="23" height="23" viewBox="0 0 23 23" fill="none" xmlns="http://www.w3.org/2000/svg">
<path d="M11.3357 5.8894C8.23022 5.8894 5.72534 8.39429 5.72534 11.4998C5.72534 14.6052 8.23022 17.1101 11.3357 17.1101C14.4412 17.1101 16.946 14.6052 16.946 11.4998C16.946 8.39429 14.4412 5.8894 11.3357 5.8894ZM11.3357 15.1472C9.32886 15.1472 7.68823 13.5115 7.68823 11.4998C7.68823 9.48804 9.32397 7.85229 11.3357 7.85229C13.3474 7.85229 14.9832 9.48804 14.9832 11.4998C14.9832 13.5115 13.3425 15.1472 11.3357 15.1472ZM18.4841 5.65991C18.4841 6.38745 17.8982 6.96851 17.1755 6.96851C16.448 6.96851 15.8669 6.38257 15.8669 5.65991C15.8669 4.93726 16.4529 4.35132 17.1755 4.35132C17.8982 4.35132 18.4841 4.93726 18.4841 5.65991ZM22.2 6.98804C22.1169 5.23511 21.7166 3.68237 20.4324 2.40308C19.1531 1.12378 17.6003 0.723389 15.8474 0.635498C14.0408 0.532959 8.62573 0.532959 6.81909 0.635498C5.07104 0.718506 3.51831 1.1189 2.23413 2.39819C0.949951 3.67749 0.554443 5.23022 0.466553 6.98315C0.364014 8.78979 0.364014 14.2048 0.466553 16.0115C0.549561 17.7644 0.949951 19.3171 2.23413 20.5964C3.51831 21.8757 5.06616 22.2761 6.81909 22.364C8.62573 22.4666 14.0408 22.4666 15.8474 22.364C17.6003 22.281 19.1531 21.8806 20.4324 20.5964C21.7117 19.3171 22.1121 17.7644 22.2 16.0115C22.3025 14.2048 22.3025 8.79468 22.2 6.98804ZM19.866 17.95C19.4851 18.907 18.7478 19.6443 17.7859 20.03C16.3455 20.6013 12.9275 20.4695 11.3357 20.4695C9.7439 20.4695 6.32104 20.5964 4.8855 20.03C3.92847 19.6492 3.19116 18.9119 2.80542 17.95C2.23413 16.5095 2.36597 13.0916 2.36597 11.4998C2.36597 9.90796 2.23901 6.48511 2.80542 5.04956C3.18628 4.09253 3.92358 3.35522 4.8855 2.96948C6.32593 2.39819 9.7439 2.53003 11.3357 2.53003C12.9275 2.53003 16.3503 2.40308 17.7859 2.96948C18.7429 3.35034 19.4802 4.08765 19.866 5.04956C20.4373 6.48999 20.3054 9.90796 20.3054 11.4998C20.3054 13.0916 20.4373 16.5144 19.866 17.95Z" fill="white"/>
</svg>
