<svg width="26" height="21" viewBox="0 0 26 21" fill="none" xmlns="http://www.w3.org/2000/svg">
<path d="M22.707 5.40791C22.7229 5.62998 22.7229 5.8521 22.7229 6.07417C22.7229 12.8476 17.5675 20.6522 8.14487 20.6522C5.24194 20.6522 2.54526 19.8114 0.276855 18.3521C0.689307 18.3997 1.08584 18.4155 1.51416 18.4155C3.90942 18.4155 6.1144 17.6065 7.8752 16.2265C5.62266 16.1789 3.73496 14.7036 3.08457 12.6731C3.40186 12.7207 3.71909 12.7524 4.05225 12.7524C4.51226 12.7524 4.97231 12.689 5.40059 12.578C3.05288 12.102 1.29204 10.0399 1.29204 7.54941V7.48599C1.97412 7.8667 2.76733 8.10464 3.60801 8.13633C2.22793 7.21626 1.32378 5.64585 1.32378 3.86919C1.32378 2.91743 1.57754 2.04497 2.02173 1.28354C4.54395 4.39268 8.33521 6.4231 12.5864 6.64522C12.5071 6.2645 12.4595 5.86797 12.4595 5.47139C12.4595 2.64775 14.7438 0.347656 17.5833 0.347656C19.0585 0.347656 20.391 0.966309 21.3269 1.96567C22.4849 1.7436 23.5953 1.31528 24.5788 0.728369C24.198 1.91812 23.3891 2.91748 22.3263 3.55195C23.3574 3.44097 24.3567 3.15537 25.2768 2.75884C24.5789 3.77402 23.7064 4.67817 22.707 5.40791Z" fill="white"/>
</svg>
