<svg width="17" height="15" viewBox="0 0 17 15" fill="none" xmlns="http://www.w3.org/2000/svg">
<path d="M10.1202 0.35H16.1137C16.3115 0.35 16.5129 0.52956 16.5129 0.803571V6.16071C16.5129 6.43473 16.3115 6.61429 16.1137 6.61429H10.1202C9.92244 6.61429 9.72103 6.43473 9.72103 6.16071V0.803571C9.72103 0.52956 9.92244 0.35 10.1202 0.35ZM1.62944 0.35H7.62293C7.8207 0.35 8.02211 0.52956 8.02211 0.803571V6.16071C8.02211 6.43473 7.8207 6.61429 7.62293 6.61429H1.62944C1.43166 6.61429 1.23025 6.43473 1.23025 6.16071V0.803571C1.23025 0.52956 1.43166 0.35 1.62944 0.35ZM1.23025 14.1964V8.83929C1.23025 8.56527 1.43166 8.38571 1.62944 8.38571H7.62293C7.8207 8.38571 8.02211 8.56527 8.02211 8.83929V14.1964C8.02211 14.4704 7.8207 14.65 7.62293 14.65H1.62944C1.43166 14.65 1.23025 14.4704 1.23025 14.1964ZM16.1137 14.65H10.1202C9.92244 14.65 9.72103 14.4704 9.72103 14.1964V8.83929C9.72103 8.56527 9.92244 8.38571 10.1202 8.38571H16.1137C16.3115 8.38571 16.5129 8.56527 16.5129 8.83929V14.1964C16.5129 14.4704 16.3115 14.65 16.1137 14.65Z" stroke="#F3B545" stroke-width="0.7"/>
</svg>
