<svg width="23" height="15" viewBox="0 0 23 15" fill="none" xmlns="http://www.w3.org/2000/svg">
<path d="M21.8884 8.03211L21.0751 8.90038C20.9922 8.9889 20.8581 8.9889 20.7752 8.90038L18.8169 6.80975C18.7339 6.72123 18.7339 6.57809 18.8169 6.48957L19.6302 5.6213C19.9601 5.2691 20.4964 5.2691 20.8281 5.6213L21.8884 6.75325C22.2201 7.10546 22.2201 7.67802 21.8884 8.03211ZM18.1182 7.23541L13.4853 12.1813L13.1113 14.4697C13.0602 14.7786 13.3124 15.0461 13.6018 14.9933L15.7453 14.5922L20.3782 9.64622C20.4611 9.5577 20.4611 9.41456 20.3782 9.32604L18.4199 7.23541C18.3352 7.14689 18.2011 7.14689 18.1182 7.23541ZM15.9273 11.3839C15.8303 11.2803 15.8396 11.5476 15.9367 11.4441L18.4199 8.75414C18.5169 8.65055 18.2629 8.38055 18.3599 8.48414C18.457 8.58773 16.5889 10.6777 16.4919 10.7813L15.643 11.7576C15.546 11.8612 16.0244 11.4875 15.9273 11.3839ZM14.6568 13.3415H15.5036V14.0252L14.3657 14.2381L13.817 13.6523L14.0164 12.4375H14.6568V13.3415Z" fill="#F3B545"/>
<rect x="0.0577393" width="14.0505" height="3" fill="#F3B545"/>
<rect x="0.0577393" y="4.50009" width="14.0505" height="3" fill="#F3B545"/>
<rect x="0.0577393" y="9.00003" width="9.83538" height="3" fill="#F3B545"/>
</svg>
