<svg width="69" height="58" viewBox="0 0 69 58" fill="none" xmlns="http://www.w3.org/2000/svg">
<path d="M67.7961 50.2713C68.4982 49.8316 68.711 48.906 68.2713 48.2039L61.1062 36.7622C60.6665 36.0601 59.7409 35.8473 59.0388 36.287C58.3367 36.7267 58.124 37.6523 58.5636 38.3544L64.9326 48.5248L54.7622 54.8938C54.0601 55.3335 53.8474 56.2591 54.287 56.9612C54.7267 57.6633 55.6523 57.876 56.3545 57.4364L67.7961 50.2713ZM3.42495 1.53146C3.16618 0.744488 2.31844 0.316288 1.53146 0.575053C0.744488 0.833817 0.316288 1.68156 0.575053 2.46854L3.42495 1.53146ZM67.336 47.5381C40.834 41.4468 24.8469 29.8518 15.4968 19.8558C10.8157 14.8513 7.78573 10.2342 5.93157 6.88493C5.00449 5.21029 4.3716 3.85308 3.97351 2.92368C3.77449 2.45901 3.63421 2.10143 3.54524 1.86474C3.50076 1.7464 3.46912 1.6583 3.44938 1.60217C3.43951 1.57411 3.43261 1.55404 3.42858 1.54218C3.42656 1.53625 3.42526 1.53238 3.42466 1.53058C3.42436 1.52969 3.42424 1.52931 3.42428 1.52945C3.42431 1.52953 3.42447 1.53003 3.42449 1.53007C3.4247 1.5307 3.42495 1.53146 2 2C0.575053 2.46854 0.575392 2.46957 0.575775 2.47073C0.575961 2.47129 0.57639 2.47259 0.576764 2.47371C0.577512 2.47597 0.578438 2.47875 0.579544 2.48206C0.581757 2.48868 0.584691 2.4974 0.58836 2.50818C0.595699 2.52976 0.605979 2.55962 0.619321 2.59756C0.646004 2.67342 0.684934 2.78157 0.737061 2.92025C0.84131 3.1976 0.998368 3.59715 1.21584 4.10487C1.65074 5.12022 2.32748 6.56872 3.30692 8.33794C5.26581 11.8764 8.43654 16.6995 13.3059 21.9052C23.0566 32.3295 39.5695 44.2344 66.664 50.4619L67.336 47.5381Z" fill="#F3B545"/>
</svg>
