<svg width="12" height="12" viewBox="0 0 12 12" fill="none" xmlns="http://www.w3.org/2000/svg">
<path d="M1.05 1.05C0.86253 1.23753 0.757215 1.49184 0.757215 1.757C0.757215 2.02216 0.86253 2.27647 1.05 2.464L4.586 6L1.05 9.536C0.954491 9.62825 0.878309 9.73859 0.8259 9.8606C0.773491 9.9826 0.745904 10.1138 0.744751 10.2466C0.743597 10.3794 0.768898 10.5111 0.819179 10.634C0.86946 10.7568 0.943713 10.8685 1.03761 10.9624C1.1315 11.0563 1.24315 11.1305 1.36605 11.1808C1.48894 11.2311 1.62062 11.2564 1.7534 11.2553C1.88618 11.2541 2.0174 11.2265 2.13941 11.1741C2.26141 11.1217 2.37175 11.0455 2.464 10.95L6 7.414L9.536 10.95C9.7246 11.1322 9.97721 11.233 10.2394 11.2307C10.5016 11.2284 10.7524 11.1232 10.9378 10.9378C11.1232 10.7524 11.2284 10.5016 11.2307 10.2394C11.233 9.9772 11.1322 9.7246 10.95 9.536L7.414 6L10.95 2.464C11.1322 2.2754 11.233 2.0228 11.2307 1.7606C11.2284 1.4984 11.1232 1.24759 10.9378 1.06218C10.7524 0.876773 10.5016 0.771604 10.2394 0.769326C9.97721 0.767047 9.7246 0.867842 9.536 1.05L6 4.586L2.464 1.05C2.27647 0.862529 2.02217 0.757214 1.757 0.757214C1.49184 0.757214 1.23753 0.862529 1.05 1.05Z" fill="#EFB508"/>
</svg>
