<svg width="27" height="27" viewBox="0 0 27 27" fill="none" xmlns="http://www.w3.org/2000/svg">
<path d="M10.4592 15.7267C9.72969 15.7267 9.14291 15.1399 9.14291 14.4263C9.14291 13.6968 9.72969 13.11 10.4592 13.11C11.1781 13.11 11.7596 13.6968 11.7596 14.4263C11.7596 15.1452 11.1728 15.7267 10.4592 15.7267ZM26.4502 13.11C26.4502 20.3522 20.5824 26.22 13.3402 26.22C6.09801 26.22 0.230225 20.3522 0.230225 13.11C0.230225 5.86778 6.09801 0 13.3402 0C20.5824 0 26.4502 5.86778 26.4502 13.11ZM19.4565 10.932C18.9596 10.932 18.5208 11.1382 18.1983 11.4607C17.0142 10.6413 15.4177 10.1127 13.6468 10.0545L14.5666 5.91536L17.4952 6.57614C17.4952 7.29508 18.082 7.87657 18.7957 7.87657C19.5252 7.87657 20.112 7.27922 20.112 6.56029C20.112 5.84135 19.5252 5.244 18.7957 5.244C18.2829 5.244 17.8441 5.5506 17.6274 5.97351L14.3922 5.25457C14.2336 5.21228 14.0697 5.32858 14.0274 5.48717L13.0178 10.0545C11.2627 10.1285 9.68211 10.6519 8.49798 11.4712C8.17552 11.1329 7.7209 10.932 7.22399 10.932C5.37907 10.932 4.77643 13.4113 6.46276 14.2518C6.40461 14.5162 6.37289 14.791 6.37289 15.0712C6.37289 17.8518 9.50238 20.1038 13.3508 20.1038C17.2151 20.1038 20.3446 17.8518 20.3446 15.0712C20.3446 14.791 20.3128 14.5003 20.2441 14.236C21.8987 13.3902 21.2908 10.932 19.4565 10.932ZM15.8142 17.0747C14.8521 18.0368 11.7913 18.021 10.8662 17.0747C10.7499 16.9584 10.5438 16.9584 10.4275 17.0747C10.2953 17.2069 10.2953 17.413 10.4275 17.5293C11.6328 18.7346 15.0424 18.7346 16.253 17.5293C16.3851 17.413 16.3851 17.2069 16.253 17.0747C16.1367 16.9584 15.9305 16.9584 15.8142 17.0747ZM16.2213 13.11C15.5023 13.11 14.9208 13.6968 14.9208 14.4263C14.9208 15.1452 15.5076 15.7267 16.2213 15.7267C16.9508 15.7267 17.5375 15.1399 17.5375 14.4263C17.5375 13.6968 16.956 13.11 16.2213 13.11Z" fill="#F3B545"/>
</svg>
