<svg width="416" height="330" viewBox="0 0 416 330" fill="none" xmlns="http://www.w3.org/2000/svg">
<path d="M386.286 100.714C386.286 89.1428 384.622 78.9286 381.295 70.0714C377.967 61.2143 373.711 54.1786 368.527 48.9643C363.342 43.75 357.036 39.5 349.607 36.2143C342.179 32.9286 334.905 30.7143 327.786 29.5714C320.667 28.4286 313.083 27.8571 305.036 27.8571C296.988 27.8571 288.321 29.6786 279.036 33.3214C269.75 36.9643 261.199 41.5357 253.384 47.0357C245.568 52.5357 238.875 57.6786 233.304 62.4643C227.732 67.25 223.089 71.6428 219.375 75.6428C216.589 78.7857 212.798 80.3571 208 80.3571C203.202 80.3571 199.411 78.7857 196.625 75.6428C192.911 71.6428 188.268 67.25 182.696 62.4643C177.125 57.6786 170.432 52.5357 162.616 47.0357C154.801 41.5357 146.25 36.9643 136.964 33.3214C127.679 29.6786 119.012 27.8571 110.964 27.8571C102.917 27.8571 95.3333 28.4286 88.2143 29.5714C81.0952 30.7143 73.8214 32.9286 66.3929 36.2143C58.9643 39.5 52.6577 43.75 47.4732 48.9643C42.2887 54.1786 38.0327 61.2143 34.7054 70.0714C31.378 78.9286 29.7143 89.1428 29.7143 100.714C29.7143 124.714 44.1845 150.071 73.125 176.786L208 296.786L342.643 177C371.738 150.143 386.286 124.714 386.286 100.714ZM416 100.714C416 132.286 398.28 164.429 362.839 197.143L218.214 325.714C215.429 328.286 212.024 329.571 208 329.571C203.976 329.571 200.571 328.286 197.786 325.714L52.9286 196.714C51.381 195.571 49.253 193.714 46.5446 191.143C43.8363 188.571 39.5417 183.893 33.6607 177.107C27.7798 170.321 22.5179 163.357 17.875 156.214C13.2321 149.071 9.09226 140.429 5.45536 130.286C1.81845 120.143 0 110.286 0 100.714C0 69.2857 9.82738 44.7143 29.4821 27C49.1369 9.2857 76.2976 0.428558 110.964 0.428558C120.56 0.428558 130.348 1.96427 140.33 5.0357C150.312 8.10713 159.598 12.25 168.187 17.4643C176.777 22.6786 184.167 27.5714 190.357 32.1428C196.548 36.7143 202.429 41.5714 208 46.7143C213.571 41.5714 219.452 36.7143 225.643 32.1428C231.833 27.5714 239.223 22.6786 247.812 17.4643C256.402 12.25 265.687 8.10713 275.67 5.0357C285.652 1.96427 295.44 0.428558 305.036 0.428558C339.702 0.428558 366.863 9.2857 386.518 27C406.173 44.7143 416 69.2857 416 100.714Z" fill="#4E4E4E"/>
</svg>
