<svg width="25" height="25" viewBox="0 0 25 25" fill="none" xmlns="http://www.w3.org/2000/svg">
<path d="M22.5245 0.170013H2.0506C1.11246 0.170013 0.35022 0.942915 0.35022 1.89172V22.3283C0.35022 23.2771 1.11246 24.05 2.0506 24.05H22.5245C23.4626 24.05 24.2302 23.2771 24.2302 22.3283V1.89172C24.2302 0.942915 23.4626 0.170013 22.5245 0.170013ZM7.56752 20.6386H4.02817V9.24228H7.57285V20.6386H7.56752ZM5.79784 7.68582C4.66248 7.68582 3.74566 6.76367 3.74566 5.63363C3.74566 4.50359 4.66248 3.58144 5.79784 3.58144C6.92788 3.58144 7.85003 4.50359 7.85003 5.63363C7.85003 6.769 6.93321 7.68582 5.79784 7.68582ZM20.8348 20.6386H17.2954V15.095C17.2954 13.7731 17.2688 12.0727 15.4565 12.0727C13.6121 12.0727 13.3296 13.5119 13.3296 14.9991V20.6386H9.79028V9.24228H13.1857V10.7987H13.2337C13.7081 9.90324 14.8648 8.95977 16.5865 8.95977C20.1685 8.95977 20.8348 11.3211 20.8348 14.3914V20.6386Z" fill="#F3B545"/>
</svg>
