<svg width="48" height="48" viewBox="0 0 48 48" fill="none" xmlns="http://www.w3.org/2000/svg">
<path d="M43.437 19.437L28.515 4.515L33 0L48 15L43.437 19.437ZM38.997 23.76C38.895 23.859 38.814 23.913 38.718 24H33L30 36L6 48H3L12.54 38.46C13.293 38.802 14.121 39 15 39C18.312 39 21 36.312 21 33C21 29.688 18.312 27 15 27C11.688 27 9 29.688 9 33C9 33.879 9.198 34.707 9.54 35.46L0 45V42L12 18L24 15V9.084C24.057 9.024 24.084 8.973 24.147 8.91L25.524 7.524L40.398 22.398L38.997 23.76Z" fill="white"/>
</svg>
