<svg width="27" height="27" viewBox="0 0 27 27" fill="none" xmlns="http://www.w3.org/2000/svg">
<path d="M26.6702 13.11C26.6702 20.3522 20.8024 26.22 13.5602 26.22C12.2069 26.22 10.9065 26.0138 9.68006 25.6332C10.214 24.761 11.0122 23.3337 11.3082 22.1971C11.4668 21.5839 12.1223 19.0782 12.1223 19.0782C12.5505 19.8923 13.7981 20.5848 15.1249 20.5848C19.0791 20.5848 21.9284 16.9478 21.9284 12.4281C21.9284 8.0986 18.3919 4.8581 13.8457 4.8581C8.18932 4.8581 5.18143 8.65366 5.18143 12.7928C5.18143 14.717 6.20697 17.1117 7.84043 17.8729C8.08888 17.9892 8.22104 17.9364 8.27919 17.6985C8.32148 17.5188 8.54351 16.6254 8.64394 16.2131C8.67566 16.0809 8.6598 15.9646 8.55408 15.8377C8.02016 15.1769 7.58669 13.9717 7.58669 12.8457C7.58669 9.95408 9.77521 7.15764 13.5073 7.15764C16.7267 7.15764 18.9839 9.35145 18.9839 12.4915C18.9839 16.0386 17.1919 18.4967 14.8606 18.4967C13.5761 18.4967 12.6087 17.4342 12.9206 16.1285C13.2906 14.569 14.0042 12.888 14.0042 11.762C14.0042 10.7576 13.465 9.91708 12.3443 9.91708C11.0281 9.91708 9.9708 11.2757 9.9708 13.0994C9.9708 14.2624 10.362 15.0448 10.362 15.0448C10.362 15.0448 9.06685 20.5319 8.82897 21.5575C8.56465 22.6888 8.67038 24.2852 8.78139 25.3213C3.90743 23.413 0.450195 18.6659 0.450195 13.11C0.450195 5.86778 6.31798 0 13.5602 0C20.8024 0 26.6702 5.86778 26.6702 13.11Z" fill="#F3B545"/>
</svg>
