<svg width="24" height="24" viewBox="0 0 24 24" fill="none" xmlns="http://www.w3.org/2000/svg">
<path d="M21.9387 9.8711H14.2979V1.95232C14.2979 0.818385 13.3797 -0.100006 12.2459 -0.100006C11.1122 -0.100006 10.194 0.818385 10.194 1.95232V9.8711H2.04255C0.918212 9.8711 0 10.7895 0 11.9234C0 13.0574 0.918212 13.9757 2.05192 13.9757H10.2034V21.8477C10.2034 22.9816 11.1216 23.9 12.2553 23.9C13.389 23.9 14.3072 22.9816 14.3072 21.8477V13.9757H21.9481C23.0818 13.9757 24 13.0574 24 11.9234C23.9859 10.7895 23.0724 9.8711 21.9387 9.8711Z" fill="#231F20"/>
</svg>
