<svg width="72" height="21" viewBox="0 0 72 21" fill="none" xmlns="http://www.w3.org/2000/svg">
<path d="M5.25 2.13526C7.06667 2.13526 8.49167 2.51027 9.525 3.26027C10.575 3.9936 11.1 5.1436 11.1 6.71027C11.1 7.66027 10.8833 8.48527 10.45 9.18527C10.0167 9.88527 9.40833 10.4353 8.625 10.8353C7.85833 11.2353 6.95 11.4603 5.9 11.5103L5.55 10.2603C6.76667 10.2936 7.85833 10.5103 8.825 10.9103C9.79167 11.3103 10.5583 11.8686 11.125 12.5853C11.6917 13.3019 11.975 14.1519 11.975 15.1353C11.975 16.0353 11.8083 16.8103 11.475 17.4603C11.1417 18.0936 10.6917 18.6186 10.125 19.0353C9.55833 19.4353 8.91667 19.7353 8.2 19.9353C7.48333 20.1186 6.74167 20.2103 5.975 20.2103H0.6V2.13526H5.25ZM5.75 10.0603C6.75 10.0603 7.475 9.78527 7.925 9.23527C8.375 8.6686 8.6 7.98527 8.6 7.18527C8.6 6.23527 8.30833 5.5436 7.725 5.11027C7.14167 4.67693 6.35833 4.46026 5.375 4.46026H3.025V10.0603H5.75ZM5.85 17.9603C6.51667 17.9603 7.125 17.8603 7.675 17.6603C8.24167 17.4603 8.68333 17.1519 9 16.7353C9.33333 16.3186 9.5 15.7936 9.5 15.1603C9.5 14.4603 9.30833 13.9103 8.925 13.5103C8.55833 13.1103 8.08333 12.8269 7.5 12.6603C6.91667 12.4769 6.31667 12.3853 5.7 12.3853H3.025V17.9603H5.85ZM15.4791 0.860265H17.8041V20.2103H15.4791V0.860265ZM21.8268 9.86027H24.1518V20.2103H21.8268V9.86027ZM21.6518 6.11027C21.6518 5.7436 21.7934 5.43527 22.0768 5.18527C22.3768 4.93527 22.7018 4.81026 23.0518 4.81026C23.4018 4.81026 23.7101 4.93527 23.9768 5.18527C24.2601 5.43527 24.4018 5.7436 24.4018 6.11027C24.4018 6.4936 24.2601 6.81027 23.9768 7.06027C23.7101 7.2936 23.4018 7.41027 23.0518 7.41027C22.7018 7.41027 22.3768 7.28527 22.0768 7.03527C21.7934 6.78527 21.6518 6.47693 21.6518 6.11027ZM31.0744 20.4103C30.3411 20.4103 29.6244 20.2853 28.9244 20.0353C28.2411 19.7686 27.6744 19.3769 27.2244 18.8603L28.1994 17.5103C28.6327 17.9269 29.0744 18.2436 29.5244 18.4603C29.9911 18.6603 30.4494 18.7603 30.8994 18.7603C31.2327 18.7603 31.5411 18.7186 31.8244 18.6353C32.1077 18.5519 32.3327 18.4186 32.4994 18.2353C32.6827 18.0353 32.7744 17.7686 32.7744 17.4353C32.7744 17.0686 32.6494 16.7769 32.3994 16.5603C32.1661 16.3436 31.8577 16.1686 31.4744 16.0353C31.1077 15.9019 30.7161 15.7769 30.2994 15.6603C29.4494 15.3769 28.7994 14.9853 28.3494 14.4853C27.8994 13.9853 27.6744 13.3769 27.6744 12.6603C27.6744 12.1103 27.8077 11.6019 28.0744 11.1353C28.3577 10.6519 28.7661 10.2603 29.2994 9.96027C29.8494 9.66027 30.5244 9.51027 31.3244 9.51027C32.0411 9.51027 32.6827 9.60193 33.2494 9.78527C33.8161 9.95193 34.3494 10.2353 34.8494 10.6353L33.9244 12.0853C33.6244 11.7686 33.2661 11.5353 32.8494 11.3853C32.4327 11.2353 32.0577 11.1519 31.7244 11.1353C31.4411 11.1186 31.1661 11.1603 30.8994 11.2603C30.6494 11.3603 30.4411 11.5019 30.2744 11.6853C30.1077 11.8686 30.0244 12.0853 30.0244 12.3353C30.0244 12.6853 30.1411 12.9686 30.3744 13.1853C30.6077 13.4019 30.9077 13.5769 31.2744 13.7103C31.6577 13.8269 32.0327 13.9519 32.3994 14.0853C32.9161 14.2353 33.3744 14.4353 33.7744 14.6853C34.1744 14.9353 34.4911 15.2436 34.7244 15.6103C34.9744 15.9769 35.0994 16.4353 35.0994 16.9853C35.0994 17.6019 34.9494 18.1769 34.6494 18.7103C34.3661 19.2269 33.9244 19.6436 33.3244 19.9603C32.7411 20.2603 31.9911 20.4103 31.0744 20.4103ZM41.2551 20.4103C40.5217 20.4103 39.8051 20.2853 39.1051 20.0353C38.4217 19.7686 37.8551 19.3769 37.4051 18.8603L38.3801 17.5103C38.8134 17.9269 39.2551 18.2436 39.7051 18.4603C40.1717 18.6603 40.6301 18.7603 41.0801 18.7603C41.4134 18.7603 41.7217 18.7186 42.0051 18.6353C42.2884 18.5519 42.5134 18.4186 42.6801 18.2353C42.8634 18.0353 42.9551 17.7686 42.9551 17.4353C42.9551 17.0686 42.8301 16.7769 42.5801 16.5603C42.3467 16.3436 42.0384 16.1686 41.6551 16.0353C41.2884 15.9019 40.8967 15.7769 40.4801 15.6603C39.6301 15.3769 38.9801 14.9853 38.5301 14.4853C38.0801 13.9853 37.8551 13.3769 37.8551 12.6603C37.8551 12.1103 37.9884 11.6019 38.2551 11.1353C38.5384 10.6519 38.9467 10.2603 39.4801 9.96027C40.0301 9.66027 40.7051 9.51027 41.5051 9.51027C42.2217 9.51027 42.8634 9.60193 43.4301 9.78527C43.9967 9.95193 44.5301 10.2353 45.0301 10.6353L44.1051 12.0853C43.8051 11.7686 43.4467 11.5353 43.0301 11.3853C42.6134 11.2353 42.2384 11.1519 41.9051 11.1353C41.6217 11.1186 41.3467 11.1603 41.0801 11.2603C40.8301 11.3603 40.6217 11.5019 40.4551 11.6853C40.2884 11.8686 40.2051 12.0853 40.2051 12.3353C40.2051 12.6853 40.3217 12.9686 40.5551 13.1853C40.7884 13.4019 41.0884 13.5769 41.4551 13.7103C41.8384 13.8269 42.2134 13.9519 42.5801 14.0853C43.0967 14.2353 43.5551 14.4353 43.9551 14.6853C44.3551 14.9353 44.6717 15.2436 44.9051 15.6103C45.1551 15.9769 45.2801 16.4353 45.2801 16.9853C45.2801 17.6019 45.1301 18.1769 44.8301 18.7103C44.5467 19.2269 44.1051 19.6436 43.5051 19.9603C42.9217 20.2603 42.1717 20.4103 41.2551 20.4103ZM48.5357 9.86027H50.8607V20.2103H48.5357V9.86027ZM48.3607 6.11027C48.3607 5.7436 48.5024 5.43527 48.7857 5.18527C49.0857 4.93527 49.4107 4.81026 49.7607 4.81026C50.1107 4.81026 50.4191 4.93527 50.6857 5.18527C50.9691 5.43527 51.1107 5.7436 51.1107 6.11027C51.1107 6.4936 50.9691 6.81027 50.6857 7.06027C50.4191 7.2936 50.1107 7.41027 49.7607 7.41027C49.4107 7.41027 49.0857 7.28527 48.7857 7.03527C48.5024 6.78527 48.3607 6.47693 48.3607 6.11027ZM56.9584 9.86027L57.1584 12.1853L57.0584 11.9853C57.4417 11.2019 57.9834 10.5853 58.6834 10.1353C59.4001 9.68527 60.2167 9.46027 61.1334 9.46027C61.7167 9.46027 62.2334 9.55193 62.6834 9.73527C63.1334 9.9186 63.5001 10.1853 63.7834 10.5353C64.0834 10.8686 64.2751 11.2853 64.3584 11.7853L64.2334 11.8603C64.6334 11.1103 65.1834 10.5269 65.8834 10.1103C66.6001 9.67693 67.3501 9.46027 68.1334 9.46027C69.1501 9.46027 69.9501 9.75193 70.5334 10.3353C71.1334 10.9019 71.4417 11.6436 71.4584 12.5603V20.2103H69.1334V13.3853C69.1167 12.8519 68.9834 12.4103 68.7334 12.0603C68.5001 11.6936 68.0834 11.4936 67.4834 11.4603C66.8834 11.4603 66.3417 11.6436 65.8584 12.0103C65.3917 12.3769 65.0251 12.8519 64.7584 13.4353C64.4917 14.0019 64.3501 14.6186 64.3334 15.2853V20.2103H62.0084V13.3853C61.9917 12.8519 61.8501 12.4103 61.5834 12.0603C61.3334 11.6936 60.9084 11.4936 60.3084 11.4603C59.6917 11.4603 59.1501 11.6436 58.6834 12.0103C58.2167 12.3769 57.8501 12.8519 57.5834 13.4353C57.3334 14.0186 57.2084 14.6436 57.2084 15.3103V20.2103H54.8834V9.86027H56.9584Z" fill="black"/>
</svg>
