<svg width="76" height="33" viewBox="0 0 76 33" fill="none" xmlns="http://www.w3.org/2000/svg">
<path d="M5.616 15.9503L4.296 13.3103H4.176L4.56 15.9503V24.7103H1.44V7.79027H3.84L10.2 16.7423L11.472 19.3103H11.592L11.208 16.7423V7.91026H14.328V24.8303H11.928L5.616 15.9503Z" fill="black"/>
<path d="M28.04 15.6463L27.608 12.7903L27.488 12.7903L27.008 15.6703L23.792 25.5103L20.336 25.5103L26.576 8.59027L28.928 8.59027L35.216 25.5103L31.4 25.5103L28.04 15.6463Z" fill="black"/>
<path d="M37.296 16.4303H43.32V19.1903H37.296V16.4303ZM50.2404 17.5343H49.3764V24.7103H46.0884V7.91026L49.3764 7.91026V15.3503L50.1444 15.0143L54.7764 7.91026H58.5204L53.6244 14.9663L52.3284 15.8783L53.6724 16.8143L59.2644 24.7103H55.2084L50.2404 17.5343ZM60.9713 7.91026C61.3073 7.86227 61.6833 7.82227 62.0993 7.79027C62.5313 7.75827 62.9713 7.73427 63.4193 7.71827C63.8673 7.70227 64.2993 7.69426 64.7153 7.69426C65.1473 7.67827 65.5313 7.67027 65.8672 7.67027C67.3553 7.67027 68.6273 7.87827 69.6833 8.29427C70.7393 8.71027 71.5953 9.29427 72.2513 10.0463C72.9073 10.7983 73.3873 11.6943 73.6913 12.7343C73.9953 13.7743 74.1473 14.9183 74.1473 16.1663C74.1473 17.3023 74.0033 18.3983 73.7153 19.4543C73.4273 20.5103 72.9473 21.4463 72.2753 22.2623C71.6033 23.0783 70.7153 23.7343 69.6113 24.2303C68.5233 24.7263 67.1713 24.9743 65.5553 24.9743C65.2993 24.9743 64.9553 24.9663 64.5233 24.9503C64.1073 24.9343 63.6673 24.9103 63.2033 24.8783C62.7553 24.8623 62.3233 24.8383 61.9073 24.8063C61.4913 24.7903 61.1793 24.7663 60.9713 24.7343V7.91026ZM66.1313 10.5983C65.7793 10.5983 65.4193 10.6063 65.0513 10.6223C64.6993 10.6383 64.4353 10.6623 64.2593 10.6943V21.9503C64.3233 21.9663 64.4273 21.9823 64.5713 21.9983C64.7313 21.9983 64.8993 22.0063 65.0753 22.0223C65.2513 22.0223 65.4193 22.0303 65.5793 22.0463C65.7393 22.0463 65.8593 22.0463 65.9393 22.0463C66.8673 22.0463 67.6353 21.8863 68.2433 21.5663C68.8673 21.2303 69.3553 20.7903 69.7073 20.2463C70.0753 19.7023 70.3313 19.0783 70.4753 18.3743C70.6193 17.6543 70.6913 16.9183 70.6913 16.1663C70.6913 15.5103 70.6273 14.8543 70.4993 14.1983C70.3713 13.5263 70.1313 12.9263 69.7793 12.3983C69.4433 11.8703 68.9793 11.4383 68.3873 11.1023C67.7953 10.7663 67.0433 10.5983 66.1313 10.5983Z" fill="black"/>
</svg>
