<svg width="66" height="42" viewBox="0 0 66 42" fill="none" xmlns="http://www.w3.org/2000/svg">
<path d="M9.71339 31.8932C8.26027 32.1444 7.07591 31.9228 6.1603 31.2286C5.26308 30.5313 4.68412 29.4284 4.42343 27.9201L2.63035 17.5459C2.36965 16.0376 2.54484 14.8044 3.15593 13.8464C3.78541 12.8851 4.82671 12.2789 6.27983 12.0277C7.73295 11.7766 8.90812 11.9997 9.80534 12.6971C10.721 13.3913 11.3091 14.4925 11.5698 16.0008L11.9227 18.0426L9.05324 18.5385L8.66696 16.3036C8.46031 15.108 7.85116 14.5977 6.83949 14.7725C5.82782 14.9474 5.42531 15.6326 5.63196 16.8282L7.49658 27.6163C7.70005 28.7935 8.30762 29.2947 9.31928 29.1198C10.3309 28.9449 10.735 28.2689 10.5316 27.0917L10.0213 24.1395L12.8908 23.6435L13.3629 26.375C13.6236 27.8833 13.4392 29.1181 12.8097 30.0793C12.1986 31.0374 11.1665 31.642 9.71339 31.8932ZM12.6131 11.2172L15.6481 10.6927L17.0072 18.5561L20.2629 17.9934L18.9038 10.13L21.9388 9.60538L25.277 28.919L22.242 29.4436L20.7398 20.7525L17.4841 21.3152L18.9863 30.0063L15.9513 30.5309L12.6131 11.2172Z" fill="black"/>
<path d="M32.6415 7.51739L24.3697 8.97938L24.8571 11.7366L30.0959 10.8107L30.9974 15.9117L26.834 16.6475L27.3213 19.4048L31.4848 18.6689L32.5325 24.597L27.2937 25.523L27.7811 28.2802L36.0529 26.8182L32.6415 7.51739Z" fill="#C4C4C4"/>
<path d="M30.0426 10.5278L38.3222 9.1106L38.7946 11.8705L33.5509 12.768L34.4248 17.8738L38.5922 17.1604L39.0646 19.9203L34.8972 20.6336L35.9129 26.5673L41.1567 25.6698L41.6291 28.4296L33.3495 29.8469L30.0426 10.5278Z" fill="#A5A5A5"/>
<path d="M40.0687 8.81165L44.5672 8.04163C46.1312 7.77393 47.3349 7.94665 48.1784 8.55979C49.0188 9.15452 49.5681 10.2063 49.8264 11.715L50.0295 12.9017C50.3728 14.9072 49.9278 16.2901 48.6944 17.0505L48.7038 17.1057C49.4776 17.2005 50.0699 17.5631 50.4808 18.1934C50.9101 18.8207 51.2224 19.7047 51.4177 20.8454L51.9987 24.24C52.0932 24.792 52.1888 25.2396 52.2854 25.5829C52.3789 25.9078 52.5276 26.2232 52.7315 26.5292L49.6404 27.0583C49.4765 26.7644 49.3525 26.4826 49.2685 26.213C49.1844 25.9433 49.081 25.4496 48.9582 24.7321L48.3535 21.1995C48.2023 20.3163 47.9496 19.7251 47.5954 19.4259C47.2596 19.1236 46.7421 19.0323 46.0429 19.1519L44.9942 19.3314L46.4114 27.611L43.3755 28.1307L40.0687 8.81165ZM45.6257 16.3826C46.2329 16.2787 46.6569 16.0451 46.8977 15.682C47.157 15.3156 47.2236 14.7645 47.0976 14.0285L46.8425 12.5382C46.7228 11.839 46.5074 11.3551 46.1963 11.0864C45.9036 10.8146 45.4904 10.7243 44.9569 10.8157L43.5769 11.0519L44.5217 16.5716L45.6257 16.3826ZM53.4365 23.6246L56.6951 8.80641L51.341 9.72289L50.8686 6.96302L59.4793 5.48911L59.9423 8.19377L56.6837 23.012L62.3138 22.0483L62.7862 24.8081L53.8994 26.3293L53.4365 23.6246Z" fill="black"/>
</svg>
