<svg width="71" height="14" viewBox="0 0 71 14" fill="none" xmlns="http://www.w3.org/2000/svg">
<path d="M0.198 0.844265C0.198 0.784266 0.456 0.730265 0.972 0.682265C1.5 0.622265 1.932 0.592265 2.268 0.592265C3.6 0.592265 4.296 0.766265 4.356 1.11427L5.904 9.03427L7.362 1.11427C7.434 0.766265 8.178 0.592265 9.594 0.592265C9.942 0.592265 10.38 0.616266 10.908 0.664266C11.436 0.712266 11.7 0.766266 11.7 0.826266L8.514 12.7423C8.466 12.9343 8.112 13.0603 7.452 13.1203C6.432 13.2283 5.502 13.2523 4.662 13.1923C3.834 13.1203 3.396 13.0003 3.348 12.8323L0.198 0.844265ZM18.1464 13.3903C16.4664 13.3903 15.0924 12.8383 14.0244 11.7343C12.9684 10.6303 12.4404 9.02227 12.4404 6.91027C12.4404 4.78627 12.9744 3.17827 14.0424 2.08627C15.1224 0.994265 16.5084 0.448265 18.2004 0.448265C19.9044 0.448265 21.2784 0.988265 22.3224 2.06827C23.3664 3.13627 23.8884 4.76227 23.8884 6.94627C23.8884 9.11827 23.3544 10.7383 22.2864 11.8063C21.2184 12.8623 19.8384 13.3903 18.1464 13.3903ZM18.1644 3.90427C17.5884 3.90427 17.1024 4.16827 16.7064 4.69627C16.3224 5.22427 16.1304 5.96827 16.1304 6.92827C16.1304 7.87627 16.3164 8.60827 16.6884 9.12427C17.0604 9.62827 17.5464 9.88027 18.1464 9.88027C18.7584 9.88027 19.2504 9.62227 19.6224 9.10627C20.0064 8.59027 20.1984 7.85227 20.1984 6.89227C20.1984 5.93227 20.0004 5.19427 19.6044 4.67827C19.2204 4.16227 18.7404 3.90427 18.1644 3.90427ZM25.1536 12.1483V0.952265C25.1536 0.700266 25.7596 0.574266 26.9716 0.574266C28.1956 0.574266 28.8076 0.700266 28.8076 0.952265V9.77227H31.5796C31.7956 9.77227 31.9456 10.0543 32.0296 10.6183C32.0656 10.8943 32.0836 11.1763 32.0836 11.4643C32.0836 11.7523 32.0656 12.0463 32.0296 12.3463C31.9336 12.9223 31.7776 13.2103 31.5616 13.2103H26.0176C25.7536 13.2103 25.5436 13.1023 25.3876 12.8863C25.2316 12.6703 25.1536 12.4243 25.1536 12.1483ZM38.3039 0.448265C39.1799 0.448265 39.9479 0.574265 40.6079 0.826266C41.2799 1.06627 41.6159 1.39627 41.6159 1.81627C41.6159 2.23627 41.4539 2.75827 41.1299 3.38227C40.8179 3.99427 40.5539 4.30027 40.3379 4.30027C40.2779 4.30027 40.2059 4.27027 40.1219 4.21027C40.0499 4.13827 39.8699 4.06627 39.5819 3.99427C39.3059 3.91027 39.0659 3.86827 38.8619 3.86827C38.1659 3.86827 37.6019 4.11427 37.1699 4.60627C36.7499 5.09827 36.5399 5.85427 36.5399 6.87427C36.5399 7.88227 36.7559 8.63227 37.1879 9.12427C37.6319 9.61627 38.1899 9.86227 38.8619 9.86227C39.1379 9.86227 39.4439 9.82627 39.7799 9.75427C40.1279 9.67027 40.3739 9.55627 40.5179 9.41227C40.5419 9.38827 40.5899 9.37627 40.6619 9.37627C40.7339 9.37627 40.8659 9.51427 41.0579 9.79027C41.2619 10.0543 41.4479 10.4083 41.6159 10.8523C41.7839 11.2843 41.8679 11.6203 41.8679 11.8603C41.8679 12.3283 41.5079 12.7003 40.7879 12.9763C40.0679 13.2523 39.2159 13.3903 38.2319 13.3903C36.6479 13.3903 35.3459 12.8323 34.3259 11.7163C33.3059 10.6003 32.7959 9.02827 32.7959 7.00027C32.7959 4.96027 33.3179 3.35827 34.3619 2.19427C35.4179 1.03027 36.7319 0.448265 38.3039 0.448265ZM48.5917 13.3903C46.9117 13.3903 45.5377 12.8383 44.4697 11.7343C43.4137 10.6303 42.8857 9.02227 42.8857 6.91027C42.8857 4.78627 43.4197 3.17827 44.4877 2.08627C45.5677 0.994265 46.9537 0.448265 48.6457 0.448265C50.3497 0.448265 51.7237 0.988265 52.7677 2.06827C53.8117 3.13627 54.3337 4.76227 54.3337 6.94627C54.3337 9.11827 53.7997 10.7383 52.7317 11.8063C51.6637 12.8623 50.2837 13.3903 48.5917 13.3903ZM48.6097 3.90427C48.0337 3.90427 47.5477 4.16827 47.1517 4.69627C46.7677 5.22427 46.5757 5.96827 46.5757 6.92827C46.5757 7.87627 46.7617 8.60827 47.1337 9.12427C47.5057 9.62827 47.9917 9.88027 48.5917 9.88027C49.2037 9.88027 49.6957 9.62227 50.0677 9.10627C50.4517 8.59027 50.6437 7.85227 50.6437 6.89227C50.6437 5.93227 50.4457 5.19427 50.0497 4.67827C49.6657 4.16227 49.1857 3.90427 48.6097 3.90427ZM68.3789 13.2283C67.3109 13.2283 66.7769 13.1083 66.7769 12.8683L66.3989 5.65027L64.2029 12.9583C64.1549 13.1023 63.7469 13.1743 62.9789 13.1743C62.2109 13.1743 61.8149 13.1083 61.7909 12.9763L59.5229 5.57827L59.2709 12.7603C59.2589 12.9403 59.0309 13.0663 58.5869 13.1383C58.1429 13.1983 57.7709 13.2283 57.4709 13.2283C57.1829 13.2283 56.9009 13.2103 56.6249 13.1743C56.0489 13.0903 55.7669 12.9403 55.7789 12.7243L56.1929 1.02427C56.1929 0.736265 56.9249 0.592265 58.3889 0.592265C58.8209 0.592265 59.3489 0.628265 59.9729 0.700265C60.5969 0.760265 60.9449 0.886265 61.0169 1.07827L63.0329 6.74827L64.7969 1.06027C64.9049 0.748266 65.7329 0.592265 67.2809 0.592265C67.7249 0.592265 68.2529 0.628265 68.8649 0.700265C69.4889 0.760265 69.8009 0.874265 69.8009 1.04227L70.3229 12.8503C70.3229 12.9823 70.0889 13.0783 69.6209 13.1383C69.1529 13.1983 68.7389 13.2283 68.3789 13.2283Z" fill="black"/>
</svg>
