<svg width="82" height="11" viewBox="0 0 82 11" fill="none" xmlns="http://www.w3.org/2000/svg">
<path d="M3.38159 10.7103L0.981588 0.406265H2.69359L4.43759 8.13427L6.38959 1.65427V0.406265H7.81359L10.0056 8.13427L11.7816 0.406265H13.4776L11.0936 10.7103H9.38159L7.31759 3.49427L5.12559 10.7103H3.38159ZM16.7918 10.7103V0.406265H18.5358V10.7103H16.7918ZM24.8295 10.7103V1.76627H21.5335V0.406265H29.8535V1.76627H26.5735V10.7103H24.8295ZM32.8512 10.7103V0.406265H34.5952V4.88627H39.5552V0.406265H41.2992V10.7103H39.5552V6.23027H34.5952V10.7103H32.8512ZM44.92 10.7103V0.406265H46.664V10.7103H44.92ZM50.2856 10.7103V0.406265H51.8216L57.1976 7.99027V0.406265H58.9256V10.7103H57.3896L52.0296 3.14227V10.7103H50.2856ZM67.3575 10.8703C65.6615 10.8703 64.3815 10.4116 63.5175 9.49427C62.6641 8.57693 62.2375 7.33427 62.2375 5.76627C62.2375 4.6356 62.4241 3.6596 62.7975 2.83827C63.1708 2.00627 63.7361 1.36627 64.4935 0.918265C65.2615 0.470265 66.2321 0.246265 67.4055 0.246265C68.0135 0.246265 68.5628 0.288932 69.0535 0.374266C69.5548 0.448932 70.0241 0.560932 70.4615 0.710266V2.21427C69.5868 1.89427 68.6161 1.73427 67.5495 1.73427C66.2375 1.73427 65.3148 2.08093 64.7815 2.77427C64.2588 3.4676 63.9975 4.46493 63.9975 5.76627C63.9975 6.95027 64.2748 7.8516 64.8295 8.47027C65.3841 9.08893 66.2428 9.39827 67.4055 9.39827C68.3228 9.39827 69.0641 9.2916 69.6295 9.07827V6.19827H67.0535V5.06227H71.1175V10.0223C70.7868 10.2356 70.3121 10.4329 69.6935 10.6143C69.0855 10.7849 68.3068 10.8703 67.3575 10.8703ZM77.5275 10.8703C76.1941 10.8703 75.1221 10.6996 74.3115 10.3583V8.82227C74.7701 8.99293 75.2608 9.1316 75.7835 9.23827C76.3168 9.34493 76.8448 9.39827 77.3675 9.39827C78.1888 9.39827 78.8021 9.30227 79.2075 9.11027C79.6235 8.91827 79.8315 8.53427 79.8315 7.95827C79.8315 7.60627 79.7461 7.3236 79.5755 7.11027C79.4048 6.89693 79.1221 6.7156 78.7275 6.56627C78.3328 6.40627 77.7888 6.24093 77.0955 6.07027C75.9861 5.78227 75.2075 5.4196 74.7595 4.98227C74.3115 4.53427 74.0875 3.92093 74.0875 3.14227C74.0875 2.2356 74.4181 1.52627 75.0795 1.01427C75.7408 0.502266 76.7275 0.246265 78.0395 0.246265C78.6368 0.246265 79.1968 0.288932 79.7195 0.374266C80.2528 0.459599 80.6688 0.555599 80.9675 0.662266V2.19827C80.1568 1.88893 79.2608 1.73427 78.2795 1.73427C77.5115 1.73427 76.9141 1.8356 76.4875 2.03827C76.0608 2.24093 75.8475 2.60893 75.8475 3.14227C75.8475 3.4516 75.9221 3.70227 76.0715 3.89427C76.2208 4.08627 76.4768 4.2516 76.8395 4.39027C77.2128 4.52893 77.7248 4.6836 78.3755 4.85427C79.2181 5.0676 79.8688 5.3236 80.3275 5.62227C80.7968 5.91027 81.1221 6.2516 81.3035 6.64627C81.4955 7.03027 81.5915 7.4676 81.5915 7.95827C81.5915 8.86493 81.2555 9.5796 80.5835 10.1023C79.9115 10.6143 78.8928 10.8703 77.5275 10.8703Z" fill="black"/>
</svg>
