<svg width="98" height="20" viewBox="0 0 98 20" fill="none" xmlns="http://www.w3.org/2000/svg">
<path d="M0.837588 19.2103V0.984265H7.44159C7.97892 0.984265 8.42959 1.17493 8.79359 1.55627C9.15759 1.92027 9.33959 2.3536 9.33959 2.85627V8.03027C9.68625 8.1516 9.97225 8.37693 10.1976 8.70627C10.4229 9.0356 10.5356 9.39093 10.5356 9.77227V17.3123C10.5356 17.8496 10.3536 18.3003 9.98959 18.6643C9.62559 19.0283 9.18359 19.2103 8.66359 19.2103H0.837588ZM3.28159 7.92627H5.95959C6.21959 7.92627 6.44492 7.83093 6.63559 7.64027C6.82625 7.4496 6.92159 7.23293 6.92159 6.99027V4.33827C6.92159 4.07827 6.82625 3.8616 6.63559 3.68827C6.44492 3.4976 6.21959 3.40227 5.95959 3.40227H3.28159V7.92627ZM3.28159 16.7923H7.20759C7.45025 16.7923 7.65825 16.7056 7.83159 16.5323C8.02225 16.3416 8.11759 16.1076 8.11759 15.8303V11.2543C8.11759 11.0116 8.02225 10.7949 7.83159 10.6043C7.65825 10.4136 7.45025 10.3183 7.20759 10.3183H3.28159V16.7923ZM12.4169 19.2103V1.01026H22.0889V3.40227H14.8349V7.92627H19.6709L19.1249 10.3443H14.8349V16.7923H22.0889V19.2103H12.4169ZM24.0204 19.2103V1.01026H33.6924V3.40227H26.4384V7.92627H31.2744L30.7284 10.3443H26.4384V16.7923H33.6924V19.2103H24.0204ZM35.3181 19.2103V1.01026H43.1181C43.6207 1.01026 44.0541 1.19227 44.4181 1.55627C44.7821 1.92027 44.9641 2.36227 44.9641 2.88227V8.47227C44.9641 8.99227 44.7821 9.43427 44.4181 9.79827C44.0541 10.1623 43.6207 10.3443 43.1181 10.3443H42.5721L44.9641 19.2103H42.5721L40.1541 10.3443H37.7361V19.2103H35.3181ZM37.7361 7.92627H41.6361C41.8787 7.92627 42.0954 7.8396 42.2861 7.66627C42.4767 7.4756 42.5721 7.25027 42.5721 6.99027V4.36427C42.5721 4.10427 42.4767 3.8876 42.2861 3.71427C42.0954 3.5236 41.8787 3.42826 41.6361 3.42826H37.7361V7.92627ZM49.6154 19.2103L46.0534 1.01026H48.4714L50.8894 13.3083L53.3074 1.01026H55.7254L58.1174 13.3083L60.5354 1.01026H62.9534L59.3914 19.2103H56.8694L54.5034 7.14627L52.1374 19.2103H49.6154ZM67.787 19.2103C67.267 19.2103 66.825 19.0283 66.461 18.6643C66.097 18.3003 65.915 17.8583 65.915 17.3383V1.01026H68.333V15.8823C68.333 16.1249 68.4196 16.3416 68.593 16.5323C68.7836 16.7056 69.009 16.7923 69.269 16.7923H72.207C72.467 16.7923 72.6836 16.7056 72.857 16.5323C73.0476 16.3416 73.143 16.1249 73.143 15.8823V1.01026H75.561V17.3383C75.561 17.8583 75.379 18.3003 75.015 18.6643C74.651 19.0283 74.209 19.2103 73.689 19.2103H67.787ZM77.2392 19.2103V1.01026H79.6572V16.7923H85.8712V19.2103H77.2392ZM87.4462 19.2103V1.01026H97.1182V3.42826H89.8642V7.92627H94.7002L94.1542 10.3443H89.8642V19.2103H87.4462Z" fill="black"/>
</svg>
