<svg width="62" height="46" viewBox="0 0 62 46" fill="none" xmlns="http://www.w3.org/2000/svg">
<path d="M39.0865 0.0521441C38.492 0.0489502 37.9101 0.223973 37.4161 0.55463C36.922 0.885287 36.5384 1.35641 36.3146 1.90721C36.0909 2.45801 36.0373 3.06321 36.1609 3.64474C36.2844 4.22627 36.5794 4.75744 37.0077 5.16973L51.7254 19.9706H3.00638C-1 19.9706 -1 25.9727 3.00638 25.9727H51.7254L37.0039 40.6904C33.9651 43.4911 38.3646 47.9699 41.2446 44.9311L61.0875 25.0882L61.3256 24.8501C61.3256 24.7745 61.405 24.6914 61.4844 24.612C61.5638 24.5326 61.5638 24.4495 61.6431 24.3701C61.6431 24.2945 61.7263 24.2114 61.7263 24.0526H61.8019C61.8019 23.9695 61.8019 23.8901 61.885 23.8107C61.885 23.652 61.885 23.5726 61.9644 23.4895V23.172C62.0309 22.7644 61.9757 22.3463 61.8057 21.9701C61.8057 21.9701 61.8057 21.8907 61.7263 21.8113V21.7282C61.6469 21.645 61.6469 21.5656 61.5638 21.4863C61.5443 21.3657 61.489 21.2537 61.405 21.165C61.405 21.0894 61.3256 21.0894 61.2463 21.0063V20.9344L61.1669 20.8551H61.0837L61.0082 20.6926L41.2446 0.932791C40.6671 0.370302 39.8927 0.0518739 39.0865 0.0521441Z" fill="black"/>
</svg>
