<svg width="13" height="12" viewBox="0 0 13 12" fill="none" xmlns="http://www.w3.org/2000/svg">
<path d="M8.70894 7.56623L8.37639 7.99149L7.95106 8.32398C7.20869 8.90432 6.27566 9.24905 5.25878 9.24905C2.84168 9.24905 0.883423 7.29101 0.883423 4.87452C0.883423 2.45804 2.84168 0.5 5.25878 0.5C7.67588 0.5 9.63414 2.45804 9.63414 4.87452C9.63414 5.89117 9.28937 6.82399 8.70894 7.56623ZM8.759 8.7179V8.37423H9.10281H9.48487C9.50413 8.37423 9.5194 8.38145 9.52981 8.39186L11.8648 10.7265C11.865 10.7266 11.8651 10.7268 11.8653 10.7269C11.8897 10.7521 11.8895 10.7928 11.8644 10.818L11.201 11.4812L11.1991 11.4831C11.1779 11.5046 11.1396 11.5073 11.1135 11.4812L8.7766 9.14471C8.76618 9.1343 8.759 9.11907 8.759 9.09989V8.7179ZM1.75856 4.87452C1.75856 6.81021 3.32582 8.37423 5.25878 8.37423C7.19459 8.37423 8.759 6.80736 8.759 4.87452C8.759 2.93883 7.19174 1.37482 5.25878 1.37482C3.32297 1.37482 1.75856 2.94169 1.75856 4.87452Z" stroke="#D9D9D9"/>
</svg>
