<svg width="28" height="24" viewBox="0 0 28 24" fill="none" xmlns="http://www.w3.org/2000/svg">
<path d="M24.4549 6.51755C24.472 6.76144 24.472 7.00539 24.472 7.24929C24.472 14.6884 18.9042 23.26 8.72772 23.26C5.59254 23.26 2.68012 22.3366 0.230225 20.7338C0.675674 20.7861 1.10393 20.8035 1.56652 20.8035C4.15341 20.8035 6.5348 19.915 8.43646 18.3993C6.00371 18.347 3.96499 16.7268 3.26257 14.4968C3.60524 14.549 3.94785 14.5839 4.30766 14.5839C4.80448 14.5839 5.30134 14.5142 5.76388 14.3923C3.22834 13.8696 1.32663 11.6047 1.32663 8.86951V8.79985C2.06328 9.21798 2.91995 9.4793 3.82788 9.51411C2.33739 8.50362 1.36091 6.77887 1.36091 4.82761C1.36091 3.78232 1.63497 2.82411 2.11469 1.98786C4.8387 5.40254 8.93328 7.6325 13.5246 7.87645C13.439 7.45832 13.3876 7.02282 13.3876 6.58726C13.3876 3.48613 15.8546 0.959991 18.9212 0.959991C20.5145 0.959991 21.9536 1.63944 22.9644 2.73702C24.215 2.49313 25.4142 2.02271 26.4764 1.37812C26.0652 2.68479 25.1915 3.78237 24.0437 4.4792C25.1573 4.3573 26.2366 4.04364 27.2302 3.60814C26.4765 4.72309 25.5342 5.7161 24.4549 6.51755Z" fill="#F3B545"/>
</svg>
