<svg width="20" height="6" viewBox="0 0 20 6" fill="none" xmlns="http://www.w3.org/2000/svg">
<path d="M10.001 0.800003C9.71196 0.800003 9.42575 0.856934 9.15872 0.967544C8.89168 1.07815 8.64904 1.24028 8.44466 1.44466C8.24028 1.64904 8.07816 1.89168 7.96754 2.15872C7.85693 2.42575 7.8 2.71196 7.8 3.001C7.8 3.29004 7.85693 3.57625 7.96754 3.84329C8.07816 4.11033 8.24028 4.35296 8.44466 4.55734C8.64904 4.76173 8.89168 4.92385 9.15872 5.03446C9.42575 5.14507 9.71196 5.202 10.001 5.202C10.5847 5.20187 11.1445 4.96985 11.5572 4.55699C11.9699 4.14413 12.2016 3.58424 12.2015 3.0005C12.2014 2.41676 11.9694 1.85698 11.5565 1.44431C11.1436 1.03163 10.5837 0.799871 10 0.800003H10.001ZM3.001 0.800003C2.71196 0.800003 2.42575 0.856934 2.15872 0.967544C1.89168 1.07815 1.64904 1.24028 1.44466 1.44466C1.24028 1.64904 1.07815 1.89168 0.967544 2.15872C0.856934 2.42575 0.800003 2.71196 0.800003 3.001C0.800003 3.29004 0.856934 3.57625 0.967544 3.84329C1.07815 4.11033 1.24028 4.35296 1.44466 4.55734C1.64904 4.76173 1.89168 4.92385 2.15872 5.03446C2.42575 5.14507 2.71196 5.202 3.001 5.202C3.58474 5.20187 4.14452 4.96985 4.5572 4.55699C4.96987 4.14413 5.20164 3.58424 5.2015 3.0005C5.20137 2.41676 4.96935 1.85698 4.55649 1.44431C4.14363 1.03163 3.58474 0.799871 3.001 0.800003ZM17.001 0.800003C16.712 0.800003 16.4258 0.856934 16.1587 0.967544C15.8917 1.07815 15.649 1.24028 15.4447 1.44466C15.2403 1.64904 15.0782 1.89168 14.9675 2.15872C14.8569 2.42575 14.8 2.71196 14.8 3.001C14.8 3.29004 14.8569 3.57625 14.9675 3.84329C15.0782 4.11033 15.2403 4.35296 15.4447 4.55734C15.649 4.76173 15.8917 4.92385 16.1587 5.03446C16.4258 5.14507 16.712 5.202 17.001 5.202C17.5847 5.20187 18.1445 4.96985 18.5572 4.55699C18.9699 4.14413 19.2016 3.58424 19.2015 3.0005C19.2014 2.41676 18.9694 1.85698 18.5565 1.44431C18.1436 1.03163 17.5847 0.799871 17.001 0.800003Z" fill="#EFB508"/>
</svg>
