<svg width="16" height="9" viewBox="0 0 16 9" fill="none" xmlns="http://www.w3.org/2000/svg">
<path d="M13.782 0.799999L8 6.582L2.218 0.799999C2.0294 0.617841 1.7768 0.517046 1.5146 0.519325C1.2524 0.521603 1.00159 0.626772 0.816182 0.81218C0.630774 0.997588 0.525605 1.2484 0.523327 1.5106C0.521048 1.77279 0.621842 2.0254 0.804 2.214L7.29 8.7C7.38301 8.7934 7.4937 8.86733 7.61561 8.91747C7.73751 8.9676 7.86819 8.99294 8 8.992C8.13177 8.99266 8.26236 8.9672 8.38423 8.91708C8.5061 8.86696 8.61682 8.79318 8.71 8.7L15.196 2.214C15.3782 2.0254 15.479 1.77279 15.4767 1.5106C15.4744 1.2484 15.3692 0.997588 15.1838 0.81218C14.9984 0.626772 14.7476 0.521603 14.4854 0.519325C14.2232 0.517046 13.9706 0.617841 13.782 0.799999Z" fill="#EFB508"/>
</svg>
